<?xml version="1.0" encoding="UTF-8" standalone="no"?>
<!-- Created with Inkscape (http://www.inkscape.org/) -->

<svg
   width="1717.1302mm"
   height="324.29504mm"
   viewBox="0 0 1717.1302 324.29504"
   version="1.1"
   id="svg1"
   inkscape:version="1.3 (0e150ed6c4, 2023-07-21)"
   sodipodi:docname="logo.svg"
   xmlns:inkscape="http://www.inkscape.org/namespaces/inkscape"
   xmlns:sodipodi="http://sodipodi.sourceforge.net/DTD/sodipodi-0.dtd"
   xmlns="http://www.w3.org/2000/svg"
   xmlns:svg="http://www.w3.org/2000/svg">
  <sodipodi:namedview
     id="namedview1"
     pagecolor="#ffffff"
     bordercolor="#000000"
     borderopacity="0.25"
     inkscape:showpageshadow="2"
     inkscape:pageopacity="0.0"
     inkscape:pagecheckerboard="0"
     inkscape:deskcolor="#d1d1d1"
     inkscape:document-units="mm"
     inkscape:zoom="0.13465402"
     inkscape:cx="3601.8234"
     inkscape:cy="1024.8487"
     inkscape:window-width="1920"
     inkscape:window-height="999"
     inkscape:window-x="1050"
     inkscape:window-y="727"
     inkscape:window-maximized="1"
     inkscape:current-layer="layer1" />
  <defs
     id="defs1" />
  <g
     inkscape:label="Layer 1"
     inkscape:groupmode="layer"
     id="layer1"
     transform="translate(-155.48963,-97.872723)">
    <path
       style="font-variation-settings:'wght' 700;fill:#ffffff;fill-opacity:1;stroke:none;stroke-width:35;stroke-linecap:square;stroke-linejoin:bevel;stroke-dasharray:none;stroke-opacity:1"
       d="m 179.95014,316.34106 c 1.95117,-15.4401 11.33771,-19.3635 3.68419,-51.5789 -7.65352,-32.2154 -22.11429,-38.9597 -27.50875,-65.8245 -5.39446,-26.8648 24.84475,-68.7168 41.02052,-81.1472 16.17577,-12.4304 54.22425,16.3509 82.56299,13.1049 28.33874,-3.246 22.6783,-31.991499 58.55476,-33.012699 35.87646,-1.0212 73.47645,76.955599 99.41369,97.819799 25.93724,20.8642 224.25014,7.7418 329.29693,11.0666 105.04678,3.3248 37.76876,-94.3804 110.56265,-96.0307 72.79389,-1.6503 13.37403,87.597 99.98559,87.4284 86.61159,-0.1686 384.29849,6.8831 504.58209,7.8884 120.2835,1.0052 49.4621,-46.433 137.6677,-47.9102 88.2056,-1.4772 38.3415,45.3806 88.4846,44.1704 50.1431,-1.2101 104.9256,-11.2211 145.6441,43.3851 40.7185,54.6062 14.7337,148.8694 -75.2901,149.9594 -90.0239,1.0901 -1266.76409,-3.7595 -1295.83582,-3.1893 -29.07173,0.5702 -52.29932,-25.8128 -60.06274,2.3972 -7.76343,28.21 -49.03263,34.6942 -76.01692,18.8148 -26.98429,-15.8794 -21.14065,-19.526 -57.53752,-30.0493 -36.39687,-10.5233 -44.82158,10.1776 -77.27813,-5.643 -32.45655,-15.8206 -33.881,-46.2091 -31.92983,-61.6492 z"
       id="path3-7"
       sodipodi:nodetypes="zzzzzzzzzzzzzzzzzzzzz" />
    <path
       d="m 378.26285,348.20107 q -3.52863,2.94052 -13.23234,7.93941 -9.40967,4.99888 -23.23011,8.82156 -13.82044,3.82267 -30.58141,3.52862 -25.58252,-0.5881 -45.87211,-9.11561 -19.99554,-8.82156 -34.11003,-23.81821 -13.82045,-14.99666 -21.17175,-34.40409 -7.3513,-19.40743 -7.3513,-41.46133 0,-24.70037 7.3513,-45.28401 7.64536,-20.58364 21.4658,-35.58029 14.1145,-14.99665 33.52193,-23.23011 19.40743,-8.23345 42.93159,-8.23345 21.75985,0 38.52081,5.88104 16.76097,5.88104 27.34684,12.64423 l -16.76097,40.28513 q -7.3513,-5.58699 -19.70148,-11.46803 -12.05613,-6.17509 -27.93494,-6.17509 -12.35018,0 -23.81821,5.29293 -11.17398,4.99889 -19.99554,14.40855 -8.52751,9.40966 -13.52639,22.0539 -4.99888,12.35018 -4.99888,27.05278 0,15.58476 4.41078,28.52305 4.70483,12.93829 13.23234,22.34795 8.5275,9.11561 20.28958,14.1145 12.05614,4.99888 27.05279,4.99888 17.34907,0 29.69925,-5.58699 12.35018,-5.58699 18.81933,-11.76208 z m 25.87672,-47.93047 q 0,-19.70149 9.11561,-35.28624 9.40967,-15.58476 26.17063,-24.40632 16.76097,-9.11561 38.52081,-9.11561 22.0539,0 38.22676,9.11561 16.17286,8.82156 24.70037,24.40632 8.82156,15.58475 8.82156,35.28624 0,19.70148 -8.82156,35.58029 -8.52751,15.58475 -24.70037,24.70037 -16.17286,9.11561 -38.81486,9.11561 -21.17174,0 -37.93271,-8.23346 -16.46691,-8.23345 -25.87657,-23.81821 -9.40967,-15.58476 -9.40967,-37.3446 z m 41.46133,0.29405 q 0,9.99777 4.11673,18.23122 4.11673,7.93941 11.17398,12.64424 7.05725,4.70483 15.87881,4.70483 9.70371,0 16.76096,-4.70483 7.05725,-4.70483 10.87992,-12.64424 3.82268,-8.23345 3.82268,-18.23122 0,-10.29182 -3.82268,-18.23123 -3.82267,-7.9394 -10.87992,-12.64423 -7.05725,-4.70483 -16.76096,-4.70483 -8.82156,0 -15.87881,4.70483 -7.05725,4.70483 -11.17398,12.64423 -4.11673,7.93941 -4.11673,18.23123 z m 173.7845,-62.92713 3.23457,22.93606 -0.5881,-2.05837 q 6.7632,-12.05613 19.11338,-19.40743 12.35018,-7.64535 30.28736,-7.64535 18.23122,0 30.28735,10.87992 12.35019,10.58587 12.64424,27.64089 v 96.155 h -41.16728 v -80.8643 q -0.29405,-8.5275 -4.70483,-13.52639 -4.11673,-5.29293 -14.1145,-5.29293 -9.40966,0 -16.46691,6.17509 -7.05725,6.17509 -10.87993,16.76096 -3.82267,10.58587 -3.82267,24.40632 v 52.34125 H 582.0408 V 237.63752 Z m 189.66346,132.02935 q -17.93717,0 -32.05167,-8.23346 -14.11449,-8.52751 -22.34795,-24.40631 -7.9394,-15.87881 -7.9394,-37.63866 0,-21.75985 8.82156,-37.05055 8.82156,-15.29071 24.11226,-23.23011 15.29071,-7.9394 34.69814,-7.9394 12.35018,0 23.52416,3.82267 11.46803,3.82268 19.11338,11.76208 v 12.93829 -125.5602 h 40.87323 v 232.00702 h -41.16728 v -24.99442 l 3.23457,8.82156 q -9.99777,8.23346 -22.34795,14.1145 -12.35019,5.58699 -28.52305,5.58699 z m 13.52639,-34.69814 q 8.23346,0 14.40855,-2.05836 6.46915,-2.35242 11.17398,-6.46915 4.99888,-4.41078 8.52751,-10.87992 v -31.46356 q -2.35242,-6.46915 -7.3513,-10.87993 -4.70484,-4.70483 -11.76208,-7.05725 -6.7632,-2.64646 -14.99666,-2.64646 -9.11561,0 -17.05501,4.70483 -7.64535,4.41078 -12.35019,12.35018 -4.70483,7.93941 -4.70483,18.23123 0,10.29182 4.70483,18.52527 4.70484,8.23346 12.35019,12.93829 7.9394,4.70483 17.05501,4.70483 z m 180.84215,34.69814 q -23.52413,0 -39.99104,-8.82156 -16.17286,-8.82156 -24.70037,-24.40632 -8.5275,-15.58475 -8.5275,-35.87434 0,-19.40743 9.99776,-34.99219 9.99777,-15.58476 26.75874,-24.70037 16.76096,-9.40966 37.34461,-9.40966 27.6409,0 45.284,16.17286 17.9372,15.87881 23.2301,46.16616 l -99.97767,31.75762 -9.11562,-22.34795 72.33679,-24.40632 -8.5275,3.82268 q -2.3524,-7.64536 -8.5275,-13.23234 -5.8811,-5.88104 -17.9372,-5.88104 -9.11559,0 -16.17284,4.41078 -6.7632,4.11672 -10.58587,12.05613 -3.52863,7.64535 -3.52863,18.23122 0,12.05613 4.41078,20.28959 4.41078,7.9394 12.05613,12.05613 7.64536,4.11673 17.05503,4.11673 6.7632,0 12.9383,-2.35242 6.4691,-2.35241 12.6442,-6.17509 l 18.2312,30.58141 q -10.2918,5.88104 -22.3479,9.40966 -11.7621,3.52863 -22.348,3.52863 z m 136.7341,-132.02935 3.2345,22.93606 -0.5881,-2.05837 q 6.7632,-12.05613 19.1134,-19.40743 12.3502,-7.64535 30.2874,-7.64535 18.2312,0 30.2873,10.87992 12.3502,10.58587 12.6442,27.64089 v 96.155 h -41.1672 v -80.8643 q -0.2941,-8.5275 -4.7049,-13.52639 -4.1167,-5.29293 -14.1145,-5.29293 -9.4096,0 -16.4669,6.17509 -7.0572,6.17509 -10.8799,16.76096 -3.8227,10.58587 -3.8227,24.40632 v 52.34125 h -41.1673 V 237.63752 Z m 179.0776,131.14719 q -15.8788,0 -29.6992,-5.58699 -13.5264,-5.58698 -22.9361,-15.58475 l 17.055,-22.64201 q 9.4097,8.52751 17.3491,12.35019 8.2334,3.52862 14.7026,3.52862 4.9989,0 8.8215,-0.88215 4.1168,-1.17621 6.4692,-3.23458 2.3524,-2.35241 2.3524,-5.88104 0,-4.99888 -4.1167,-7.9394 -3.8227,-2.94052 -9.9978,-4.70483 -6.1751,-2.05837 -13.2323,-4.11673 -17.6432,-5.58699 -25.5826,-16.17286 -7.6453,-10.87992 -7.6453,-23.52416 0,-9.70372 4.9989,-19.40743 5.2929,-9.99777 16.4669,-16.46691 11.468,-6.7632 29.4052,-6.7632 16.1728,0 27.3468,3.23457 11.174,3.23457 21.1718,10.58587 l -15.5848,24.11227 q -5.587,-4.41078 -12.6442,-7.3513 -6.7632,-3.23457 -12.6443,-3.52863 -5.2929,-0.29405 -9.1156,1.17621 -3.5286,1.47026 -5.587,3.82268 -2.0583,2.35241 -2.0583,4.99888 -0.2941,5.58699 4.1167,8.82156 4.7048,3.23457 11.7621,4.99889 7.0572,1.76431 13.8204,4.11672 9.4097,2.94052 16.1729,7.93941 6.7632,4.99888 10.2918,12.05613 3.8227,6.7632 3.8227,16.46691 0,11.76208 -6.1751,22.34795 -5.8811,10.29182 -18.2312,16.76097 -12.0562,6.46914 -30.8755,6.46914 z m 143.7916,0.88216 q -17.9372,0 -32.6398,-7.05725 -14.4085,-7.3513 -22.936,-22.34795 -8.5275,-14.99665 -8.5275,-38.22676 0,-21.75985 8.8215,-37.63866 8.8216,-15.87881 23.2301,-24.40631 14.4086,-8.82156 30.5814,-8.82156 19.1134,0 28.8171,6.46914 9.9978,6.17509 16.4669,13.82044 l -1.7643,4.99889 3.8227,-18.81933 h 38.2268 v 128.50072 h -41.1673 V 338.2033 l 3.2346,8.82156 q -0.5881,0 -3.5287,3.52863 -2.9405,3.23457 -8.8215,7.9394 -5.587,4.41078 -14.1145,7.64535 -8.2335,3.52863 -19.7015,3.52863 z m 11.7621,-33.52193 q 7.3513,0 13.2323,-2.05836 5.8811,-2.35242 10.2918,-6.46915 4.4108,-4.41078 7.6454,-10.87992 v -31.46357 q -2.3524,-6.46914 -7.0573,-10.87992 -4.7048,-4.70483 -11.1739,-7.05725 -6.4692,-2.64647 -14.4086,-2.64647 -8.8215,0 -16.4669,4.70484 -7.3513,4.41078 -11.7621,12.35018 -4.4108,7.9394 -4.4108,18.23122 0,10.29182 4.7049,18.52528 4.7048,8.23346 12.3502,12.93829 7.9394,4.70483 17.055,4.70483 z m 126.7364,-154.9654 h 41.1673 v 55.86988 h 31.1695 v 32.05166 h -31.1695 v 97.03716 h -41.1673 v -97.03716 h -19.9955 v -32.05166 h 19.9955 z m 167.0213,188.48733 q -23.5242,0 -39.9911,-8.82156 -16.1729,-8.82156 -24.7004,-24.40632 -8.5275,-15.58475 -8.5275,-35.87434 0,-19.40743 9.9978,-34.99219 9.9978,-15.58476 26.7587,-24.70037 16.761,-9.40966 37.3446,-9.40966 27.6409,0 45.284,16.17286 17.9372,15.87881 23.2302,46.16616 l -99.9777,31.75762 -9.1156,-22.34795 72.3368,-24.40632 -8.5276,3.82268 q -2.3524,-7.64536 -8.5275,-13.23234 -5.881,-5.88104 -17.9371,-5.88104 -9.1156,0 -16.1729,4.41078 -6.7632,4.11672 -10.5859,12.05613 -3.5286,7.64535 -3.5286,18.23122 0,12.05613 4.4108,20.28959 4.4108,7.9394 12.0561,12.05613 7.6454,4.11673 17.055,4.11673 6.7632,0 12.9383,-2.35242 6.4692,-2.35241 12.6443,-6.17509 l 18.2312,30.58141 q -10.2918,5.88104 -22.348,9.40966 -11.762,3.52863 -22.3479,3.52863 z"
       id="text1"
       style="font-size:294.052px;line-height:1.5;font-family:'Josefin Sans';-inkscape-font-specification:'Josefin Sans, @wght=700';font-variation-settings:'wght' 700;text-align:center;text-anchor:middle;fill:#6969ff;stroke-width:9.99994;stroke-linecap:square;stroke-linejoin:bevel"
       aria-label="Condensate" />
    <path
       style="fill:#2cb1ff;fill-opacity:1;stroke:#ffffff;stroke-width:9.99997;stroke-linecap:square;stroke-linejoin:bevel;stroke-dasharray:none;stroke-opacity:1"
       d="m 221.19276,363.65846 c -15.6172,0.1035 -26.6134,-13.0181 -26.7186,-25.6731 -0.1051,-12.655 12.0159,-20.8484 18.099,-32.6821 6.0831,-11.8338 8.761,-20.2156 8.761,-20.2156 0,0 2.0663,8.771 8.2974,20.3696 6.2311,11.5988 17.8729,19.352 17.9971,32.3144 0.1241,12.9625 -10.8186,25.7827 -26.4359,25.8868 z"
       id="path1-75"
       sodipodi:nodetypes="zzzczzz" />
    <path
       style="fill:#2cb1ff;fill-opacity:1;stroke:#ffffff;stroke-width:10;stroke-linecap:square;stroke-linejoin:bevel;stroke-dasharray:none;stroke-opacity:1"
       d="m 372.98666,404.47766 c -19.4159,0.1284 -33.0867,-16.1038 -33.2175,-31.7585 -0.1311,-15.6548 14.9385,-25.7903 22.5013,-40.4291 7.5628,-14.6388 10.892,-25.0075 10.892,-25.0075 0,0 2.5688,10.85 10.3156,25.1981 7.7468,14.3481 22.2202,23.9391 22.3747,39.9742 0.1545,16.0351 -13.45,31.8941 -32.8661,32.0228 z"
       id="path1-5-4"
       sodipodi:nodetypes="zzzczzz" />
    <path
       style="fill:#2cb1ff;fill-opacity:1;stroke:#ffffff;stroke-width:10;stroke-linecap:square;stroke-linejoin:bevel;stroke-dasharray:none;stroke-opacity:1"
       d="m 306.56676,316.27396 c -24.637,0.1631 -41.9838,-20.4365 -42.1497,-40.3031 -0.1661,-19.8666 18.9555,-32.729 28.5518,-51.3064 9.5964,-18.5773 13.8209,-31.7356 13.8209,-31.7356 0,0 3.2596,13.7691 13.0894,31.9775 9.8299,18.2084 28.1953,30.3798 28.3912,50.7291 0.1959,20.3492 -17.0667,40.475 -41.7036,40.6385 z"
       id="path1-2-8"
       sodipodi:nodetypes="zzzczzz" />
    <path
       style="fill:#2cb1ff;fill-opacity:1;stroke:#ffffff;stroke-width:10;stroke-linecap:square;stroke-linejoin:bevel;stroke-dasharray:none;stroke-opacity:1"
       d="m 206.91416,222.39526 c -19.9473,0.1327 -33.9921,-16.6018 -34.1264,-32.7408 -0.1345,-16.1389 15.3472,-26.5878 23.1169,-41.6794 7.7697,-15.0915 11.1901,-25.7809 11.1901,-25.7809 0,0 2.6391,11.1856 10.5978,25.9774 7.9587,14.7918 22.8282,24.6794 22.9869,41.2105 0.1586,16.531 -13.8181,32.8804 -33.7653,33.0132 z"
       id="path1-7-1"
       sodipodi:nodetypes="zzzczzz" />
    <path
       style="fill:#2cb1ff;fill-opacity:1;stroke:#ffffff;stroke-width:10;stroke-linecap:square;stroke-linejoin:bevel;stroke-dasharray:none;stroke-opacity:1"
       d="m 417.18926,280.59706 c -17.2784,0.1149 -29.4443,-14.3596 -29.5606,-28.3188 -0.1166,-13.9592 13.294,-22.997 20.0241,-36.0504 6.7302,-13.0533 9.6929,-22.2989 9.6929,-22.2989 0,0 2.2861,9.6749 9.18,22.4688 6.894,12.7942 19.7741,21.3464 19.9115,35.6448 0.1372,14.2984 -11.9694,28.4397 -29.2479,28.5545 z"
       id="path1-6-2"
       sodipodi:nodetypes="zzzczzz" />
    <path
       style="fill:#2cb1ff;fill-opacity:1;stroke:#ffffff;stroke-width:10;stroke-linecap:square;stroke-linejoin:bevel;stroke-dasharray:none;stroke-opacity:1"
       d="m 340.65176,165.32396 c -11.8515,0.078 -20.1962,-9.8148 -20.2761,-19.3558 -0.08,-9.5411 9.1186,-15.7185 13.7349,-24.6404 4.6163,-8.9219 6.6485,-15.2412 6.6485,-15.2412 0,0 1.568,6.6127 6.2967,15.3574 4.7286,8.7447 13.5632,14.5901 13.6575,24.363 0.094,9.7729 -8.21,19.4385 -20.0615,19.517 z"
       id="path1-61-8"
       sodipodi:nodetypes="zzzczzz" />
  </g>
</svg>
